<svg xmlns="http://www.w3.org/2000/svg" id="round-clock" width="22" height="22" viewBox="0 0 22 22">
    <defs>
        <style>
            .cls-1{fill:#888}
        </style>
    </defs>
    <path id="Path_246" d="M34.886 26.4a8.486 8.486 0 1 0 8.486 8.486 8.5 8.5 0 0 0-8.486-8.486zm4.457 11.562a.889.889 0 0 1-.743.39.866.866 0 0 1-.514-.162l-2.819-1.943a1.273 1.273 0 0 1-.381.057 1.423 1.423 0 0 1-1.419-1.419 1.4 1.4 0 0 1 .514-1.086v-3.428a.9.9 0 1 1 1.81 0V33.8a1.41 1.41 0 0 1 .5.962l2.823 1.938a.912.912 0 0 1 .229 1.262z" class="cls-1" transform="translate(-23.886 -23.886)"/>
    <path id="Path_247" d="M11 0a11 11 0 1 0 11 11A11.011 11.011 0 0 0 11 0zm0 20.571A9.571 9.571 0 1 1 20.571 11 9.584 9.584 0 0 1 11 20.571z" class="cls-1"/>
</svg>
