<svg xmlns="http://www.w3.org/2000/svg" width="21.533" height="22" viewBox="0 0 21.533 22">
    <defs>
        <style>
            .cls-1{fill:#888}
        </style>
    </defs>
    <g id="criticScore2">
        <path id="Path_233" d="M84.427 13.073l-1.417-1.938a.365.365 0 0 1-.01-.42l1.387-1.956a.363.363 0 0 0-.124-.527L82.151 7.1a.354.354 0 0 1-.184-.379l.4-2.365a.361.361 0 0 0-.344-.421l-2.394-.1a.361.361 0 0 1-.332-.261l-.664-2.311a.361.361 0 0 0-.492-.231l-2.2.948a.375.375 0 0 1-.415-.089L73.919.107a.365.365 0 0 0-.545.006L71.8 1.92a.356.356 0 0 1-.409.095L69.172 1.1a.362.362 0 0 0-.486.237l-.634 2.311a.368.368 0 0 1-.326.267l-2.394.136a.365.365 0 0 0-.338.427l.433 2.359a.359.359 0 0 1-.178.379l-2.1 1.162a.364.364 0 0 0-.119.527l1.416 1.938a.365.365 0 0 1 .006.421l-1.387 1.956a.363.363 0 0 0 .124.527l2.116 1.132a.354.354 0 0 1 .184.379l-.4 2.365a.361.361 0 0 0 .344.421l2.394.1a.361.361 0 0 1 .332.261l.67 2.305a.361.361 0 0 0 .492.231l2.2-.948a.375.375 0 0 1 .415.089l1.6 1.784a.365.365 0 0 0 .545-.006l1.576-1.808a.356.356 0 0 1 .409-.095l2.216.913a.362.362 0 0 0 .486-.237l.634-2.311a.368.368 0 0 1 .326-.267l2.394-.136a.365.365 0 0 0 .338-.427l-.433-2.359a.358.358 0 0 1 .178-.379l2.1-1.162a.349.349 0 0 0 .122-.519zM73.736 17.5a6.507 6.507 0 1 1 6.507-6.507 6.518 6.518 0 0 1-6.507 6.507z" class="cls-1" transform="translate(-62.966 .013)"/>
        <path id="Path_236" d="M179.815 114.374l-2.453-.178-.924-2.276a.516.516 0 0 0-.954 0l-.924 2.276-2.454.178a.516.516 0 0 0-.3.907l1.879 1.588-.587 2.388a.515.515 0 0 0 .77.563l2.086-1.3 2.086 1.3a.515.515 0 0 0 .77-.563l-.587-2.388 1.879-1.588a.513.513 0 0 0-.287-.907z" class="cls-1" transform="translate(-165.187 -104.986)"/>
    </g>
</svg>
