<svg xmlns="http://www.w3.org/2000/svg" width="62.045" height="63" viewBox="0 0 62.045 63">
    <defs>
        <filter id="Path_233" width="62.045" height="63" x="0" y="0">
            <feOffset dy="3"/>
            <feGaussianBlur result="blur" stdDeviation="3"/>
            <feFlood flood-opacity=".161"/>
            <feComposite in2="blur" operator="in"/>
            <feComposite in="SourceGraphic"/>
        </filter>
        <filter id="Path_236" width="35.725" height="34.975" x="13.172" y="13.53" >
            <feOffset dy="3"/>
            <feGaussianBlur result="blur-2" stdDeviation="3"/>
            <feFlood flood-opacity=".161"/>
            <feComposite in2="blur-2" operator="in"/>
            <feComposite in="SourceGraphic"/>
        </filter>
    </defs>
    <g id="Group_8">
        <g filter="url(#Path_233)" transform="translate(9 6) translate(-9 -6)">
            <path fill="white" id="Path_233-2" d="M106.864 26.754l-2.9-3.964a.747.747 0 0 1-.012-.861l2.837-4a.743.743 0 0 0-.255-1.079l-4.328-2.315a.724.724 0 0 1-.376-.776l.812-4.837a.739.739 0 0 0-.7-.861l-4.9-.206a.739.739 0 0 1-.679-.533L95.008 2.6A.739.739 0 0 0 94 2.122l-4.509 1.94a.767.767 0 0 1-.849-.182L85.371.231a.747.747 0 0 0-1.115.012l-3.224 3.7a.728.728 0 0 1-.836.194l-4.535-1.869a.74.74 0 0 0-.994.485L73.37 7.48a.752.752 0 0 1-.667.545l-4.9.279a.746.746 0 0 0-.691.873L68 14a.733.733 0 0 1-.364.776l-4.291 2.376a.744.744 0 0 0-.242 1.079L66 22.2a.747.747 0 0 1 .012.861l-2.837 4a.743.743 0 0 0 .255 1.079l4.328 2.315a.724.724 0 0 1 .376.776l-.812 4.837a.739.739 0 0 0 .7.861l4.9.206a.739.739 0 0 1 .679.533l1.37 4.715a.739.739 0 0 0 1.006.473l4.509-1.94a.767.767 0 0 1 .849.182l3.273 3.649a.747.747 0 0 0 1.115-.012l3.224-3.7a.728.728 0 0 1 .836-.194l4.534 1.867a.74.74 0 0 0 .994-.485l1.3-4.728a.752.752 0 0 1 .667-.545l4.9-.279a.746.746 0 0 0 .691-.873l-.885-4.825a.733.733 0 0 1 .364-.776l4.291-2.376a.714.714 0 0 0 .225-1.067zM85 35.809A13.31 13.31 0 1 1 98.305 22.5 13.332 13.332 0 0 1 85 35.809z" transform="translate(-53.97 6.01)"/>
        </g>
        <g filter="url(#Path_236)" transform="translate(9 6) translate(-9 -6)">
            <path fill="white" id="Path_236-2" d="M188.376 117.273l-5.019-.364-1.891-4.655a1.055 1.055 0 0 0-1.952 0l-1.891 4.655-5.019.364a1.055 1.055 0 0 0-.606 1.855l3.843 3.249-1.2 4.885a1.053 1.053 0 0 0 1.576 1.152l4.267-2.655 4.267 2.655a1.053 1.053 0 0 0 1.576-1.152l-1.2-4.885 3.843-3.249a1.049 1.049 0 0 0-.594-1.855z" transform="translate(-149.45 -92.07)"/>
        </g>
    </g>
</svg>
