<svg xmlns="http://www.w3.org/2000/svg" width="62.045" height="63" viewBox="0 0 62.045 63">
    <defs>
        <filter id="Path_237" width="62.045" height="63" x="0" y="0" >
            <feOffset dy="3"/>
            <feGaussianBlur result="blur" stdDeviation="3"/>
            <feFlood flood-opacity=".161"/>
            <feComposite in2="blur" operator="in"/>
            <feComposite in="SourceGraphic"/>
        </filter>
        <filter id="Path_240" width="34.566" height="35.104" x="13.738" y="12.669" >
            <feOffset dy="3"/>
            <feGaussianBlur result="blur-2" stdDeviation="3"/>
            <feFlood flood-opacity=".161"/>
            <feComposite in2="blur-2" operator="in"/>
            <feComposite in="SourceGraphic"/>
        </filter>
    </defs>
    <g id="Group_15">
        <g filter="url(#Path_237)" transform="translate(-247.569 -4194) translate(247.57 4194)">
            <path fill="white" id="Path_237-2" d="M106.864 26.754l-2.9-3.964a.747.747 0 0 1-.012-.861l2.837-4a.743.743 0 0 0-.255-1.079l-4.328-2.315a.724.724 0 0 1-.376-.776l.812-4.837a.739.739 0 0 0-.7-.861l-4.9-.206a.739.739 0 0 1-.679-.533L95.008 2.6A.739.739 0 0 0 94 2.122l-4.509 1.94a.767.767 0 0 1-.849-.182L85.371.231a.747.747 0 0 0-1.115.012l-3.224 3.7a.728.728 0 0 1-.836.194l-4.535-1.869a.74.74 0 0 0-.994.485L73.37 7.48a.752.752 0 0 1-.667.545l-4.9.279a.746.746 0 0 0-.691.873L68 14a.733.733 0 0 1-.364.776l-4.291 2.376a.744.744 0 0 0-.242 1.079L66 22.2a.747.747 0 0 1 .012.861l-2.837 4a.743.743 0 0 0 .255 1.079l4.328 2.315a.724.724 0 0 1 .376.776l-.812 4.837a.739.739 0 0 0 .7.861l4.9.206a.739.739 0 0 1 .679.533l1.37 4.715a.739.739 0 0 0 1.006.473l4.509-1.94a.767.767 0 0 1 .849.182l3.273 3.649a.747.747 0 0 0 1.115-.012l3.224-3.7a.728.728 0 0 1 .836-.194l4.534 1.867a.74.74 0 0 0 .994-.485l1.3-4.728a.752.752 0 0 1 .667-.545l4.9-.279a.746.746 0 0 0 .691-.873l-.885-4.825a.733.733 0 0 1 .364-.776l4.291-2.376a.714.714 0 0 0 .225-1.067zM85 35.809A13.31 13.31 0 1 1 98.305 22.5 13.332 13.332 0 0 1 85 35.809z" transform="translate(-53.97 6.01)"/>
        </g>
        <g filter="url(#Path_240)" transform="translate(-247.569 -4194) translate(247.57 4194)">
            <path fill="white" id="Path_240-2" d="M192.277 113.531a1.607 1.607 0 0 0-.218-2.024c-1.188-1.091-4.425-.364-4.425-.364-.23.036-.461.085-.715.145 0 0-1.115.521 0-2.873s-.752-3.915-1.527-3.915-.521 1.685-.521 1.685-1.685 4.631-3.285 5.855a3.644 3.644 0 0 0-.776 1.309 1.425 1.425 0 0 0-.933-.339h-2.147a1.425 1.425 0 0 0-1.43 1.43v5.734a1.425 1.425 0 0 0 1.43 1.43h2.146a1.415 1.415 0 0 0 .8-.242 1.5 1.5 0 0 0 .339-1.127v-3.564c0 .133.024 4.425 2.485 4.679.885.061 1.976.109 3.067.085a11.274 11.274 0 0 0 2.885-.085c2.849-.606 2.146-2.594 2.146-2.594a1.959 1.959 0 0 0 .667-2.606 1.754 1.754 0 0 0 .012-2.619z" transform="translate(-153.56 -85.83)"/>
        </g>
    </g>
</svg>
