<svg xmlns="http://www.w3.org/2000/svg" id="userScore" width="21.533" height="22" viewBox="0 0 21.533 22">
    <defs>
        <style>
            .cls-1{fill:#888}
        </style>
    </defs>
    <path id="Path_233" d="M84.427 13.073l-1.417-1.938a.365.365 0 0 1-.01-.42l1.387-1.956a.363.363 0 0 0-.124-.527L82.151 7.1a.354.354 0 0 1-.184-.379l.4-2.365a.361.361 0 0 0-.344-.421l-2.394-.1a.361.361 0 0 1-.332-.261l-.664-2.311a.361.361 0 0 0-.492-.231l-2.2.948a.375.375 0 0 1-.415-.089L73.919.107a.365.365 0 0 0-.545.006L71.8 1.92a.356.356 0 0 1-.409.095L69.172 1.1a.362.362 0 0 0-.486.237l-.634 2.311a.368.368 0 0 1-.326.267l-2.394.136a.365.365 0 0 0-.338.427l.433 2.359a.359.359 0 0 1-.178.379l-2.1 1.162a.364.364 0 0 0-.119.527l1.416 1.938a.365.365 0 0 1 .006.421l-1.387 1.956a.363.363 0 0 0 .124.527l2.116 1.132a.354.354 0 0 1 .184.379l-.4 2.365a.361.361 0 0 0 .344.421l2.394.1a.361.361 0 0 1 .332.261l.67 2.305a.361.361 0 0 0 .492.231l2.2-.948a.375.375 0 0 1 .415.089l1.6 1.784a.365.365 0 0 0 .545-.006l1.576-1.808a.356.356 0 0 1 .409-.095l2.216.913a.362.362 0 0 0 .486-.237l.634-2.311a.368.368 0 0 1 .326-.267l2.394-.136a.365.365 0 0 0 .338-.427l-.433-2.359a.358.358 0 0 1 .178-.379l2.1-1.162a.349.349 0 0 0 .122-.519zM73.736 17.5a6.507 6.507 0 1 1 6.507-6.507 6.518 6.518 0 0 1-6.507 6.507z" class="cls-1" transform="translate(-62.966 .013)"/>
    <path id="Path_245" d="M184.111 108.915a.785.785 0 0 0-.107-.99c-.581-.533-2.163-.178-2.163-.178-.113.018-.225.041-.35.071 0 0-.545.255 0-1.4s-.367-1.914-.747-1.914-.255.824-.255.824a8.908 8.908 0 0 1-1.606 2.862 1.782 1.782 0 0 0-.379.64.7.7 0 0 0-.456-.166H177a.7.7 0 0 0-.7.7v2.8a.7.7 0 0 0 .7.7h1.049a.692.692 0 0 0 .391-.119.735.735 0 0 0 .166-.551v-1.744c0 .065.012 2.163 1.215 2.288.433.03.966.053 1.5.041a5.512 5.512 0 0 0 1.41-.041c1.393-.3 1.049-1.268 1.049-1.268a.958.958 0 0 0 .326-1.274.857.857 0 0 0 .005-1.281z" class="cls-1" transform="translate(-169.583 -98.306)"/>
</svg>
