<svg id="fb5d0532-815e-4a84-98ff-6e580078f7af" xmlns="http://www.w3.org/2000/svg"
     viewBox="0 0 411.86 42.35">
    <defs>
        <style>
            .b36e333e-5acb-406c-85fd-5018b740fca3{fill:#2e2e2e;}.e387d08f-dbd4-44fb-9cf6-be26b75d6f4b{fill:#107c10;}.af77f03e-da6e-4d5e-8157-1d8d8e1708f6{fill:#086008;}.b3e6fa10-4976-4774-ab29-41e6220966de{fill:#249324;}.b43c1a66-3014-4a5d-abb4-ce5d701446e2{fill:#fff;}
        </style>
    </defs>
    <path class="b36e333e-5acb-406c-85fd-5018b740fca3"
          d="M1918,911.58c0-8.8,5-14.3,12.61-14.3,6.16,0,10.06,3.08,11.13,9.28l-3.08,0c-.86-4.72-3.7-6.69-8.13-6.69-5.75,0-9.49,4.31-9.49,11.46v.29c0,7,3.69,11.17,9.53,11.17a7.78,7.78,0,0,0,8.17-7.89v-.12h-7.47v-2.55h10.47V925h-2.67v-4.64c-1.44,3.16-4.48,5.09-8.71,5.09C1922.82,925.46,1918,920.12,1918,911.58Z"
          transform="translate(-1838.32 -890.18)"/>
    <path class="b36e333e-5acb-406c-85fd-5018b740fca3"
          d="M1954.79,897.69h3.53l10,27.32h-3.17l-3.16-8.83h-11.09l-3.21,8.83h-3Zm6.33,15.94-4.69-12.9-4.64,12.9Z"
          transform="translate(-1838.32 -890.18)"/>
    <path class="b36e333e-5acb-406c-85fd-5018b740fca3"
          d="M1971.52,897.73h5L1985,921l8.83-23.25h4.85V925h-2.87V900.28L1986.18,925h-2.54l-9.25-24.61V925h-2.87Z"
          transform="translate(-1838.32 -890.18)"/>
    <path class="b36e333e-5acb-406c-85fd-5018b740fca3"
          d="M2003.73,897.73h18.16v2.59h-15.2v9h10v2.58h-10v10.52h16.1V925h-19.06Z"
          transform="translate(-1838.32 -890.18)"/>
    <path class="b36e333e-5acb-406c-85fd-5018b740fca3"
          d="M2034.3,897.73h8.3c7.35,0,10.89,2.59,10.89,8.22,0,5.83-3.54,8.38-11,8.38h-5.18V925h-3Zm8.18,14.09c5.58,0,8-1.6,8-5.87,0-4.11-2.22-5.71-7.85-5.71h-5.34v11.58Z"
          transform="translate(-1838.32 -890.18)"/>
    <path class="b36e333e-5acb-406c-85fd-5018b740fca3"
          d="M2061.62,897.69h3.54l10,27.32H2072l-3.17-8.83h-11.09l-3.2,8.83h-3Zm6.33,15.94-4.68-12.9-4.65,12.9Z"
          transform="translate(-1838.32 -890.18)"/>
    <path class="b36e333e-5acb-406c-85fd-5018b740fca3"
          d="M2075.92,916.42h3.13c1,4.73,3.61,6.45,8.13,6.45,4.19,0,6.62-2.13,6.62-5.42s-3.5-4.15-7.6-5c-4.56-.86-9.25-2.38-9.25-7.4,0-4.39,3.7-7.8,9.12-7.8,5.75,0,9.41,2.67,10.44,9h-3.08c-.87-4.89-3.58-6.45-7.4-6.45s-6.16,2.09-6.16,5.13c0,3.33,3.74,4.19,7.8,5,4.52.82,9.08,2.34,9.08,7.4,0,4.68-3.49,8.09-9.53,8.09C2080.57,925.42,2077.12,922.46,2075.92,916.42Z"
          transform="translate(-1838.32 -890.18)"/>
    <path class="b36e333e-5acb-406c-85fd-5018b740fca3"
          d="M2099.14,916.42h3.12c1,4.73,3.62,6.45,8.14,6.45,4.19,0,6.61-2.13,6.61-5.42s-3.49-4.15-7.6-5c-4.56-.86-9.24-2.38-9.24-7.4,0-4.39,3.69-7.8,9.12-7.8,5.75,0,9.41,2.67,10.43,9h-3.08c-.86-4.89-3.57-6.45-7.39-6.45s-6.17,2.09-6.17,5.13c0,3.33,3.74,4.19,7.81,5,4.52.82,9.08,2.34,9.08,7.4,0,4.68-3.49,8.09-9.53,8.09C2103.78,925.42,2100.33,922.46,2099.14,916.42Z"
          transform="translate(-1838.32 -890.18)"/>
    <path class="b36e333e-5acb-406c-85fd-5018b740fca3"
          d="M2130.2,911.37c0-8.5,5.22-14.17,12.9-14.17,6.41,0,10.93,3.32,12.12,10.1h-5.38c-.86-3.86-3.25-5.38-6.78-5.38-4.64,0-7.43,3.49-7.43,9.24v.42c0,5.79,2.75,9.24,7.35,9.24,3.74,0,6.2-1.6,6.94-5.79h5.38c-1,7.14-5.79,10.51-12.44,10.51C2135.34,925.54,2130.2,919.83,2130.2,911.37Z"
          transform="translate(-1838.32 -890.18)"/>
    <path class="b36e333e-5acb-406c-85fd-5018b740fca3"
          d="M2158,897.73h10.39c7.69,0,10.81,3.12,10.81,7.6,0,3.86-2.43,6.78-6.57,7.52,4.19,1.19,6.16,4.44,6.94,10.84a12.89,12.89,0,0,0,.16,1.32h-5.54l0-1c-.66-5.62-2.72-8.95-8.06-9h-3v10H2158ZM2167.8,911c4.6,0,6.16-2.75,6.16-5.09,0-2.63-1.64-4-5.88-4h-4.92v9.16Z"
          transform="translate(-1838.32 -890.18)"/>
    <path class="b36e333e-5acb-406c-85fd-5018b740fca3" d="M2183.08,897.73h5.22V925h-5.22Z"
          transform="translate(-1838.32 -890.18)"/>
    <path class="b36e333e-5acb-406c-85fd-5018b740fca3" d="M2199.77,902.21h-8.3v-4.48h21.81v4.48H2205V925h-5.21Z"
          transform="translate(-1838.32 -890.18)"/>
    <path class="b36e333e-5acb-406c-85fd-5018b740fca3" d="M2216.41,897.73h5.22V925h-5.22Z"
          transform="translate(-1838.32 -890.18)"/>
    <path class="b36e333e-5acb-406c-85fd-5018b740fca3"
          d="M2225.08,911.37c0-8.5,5.22-14.17,12.9-14.17,6.41,0,10.93,3.32,12.12,10.1h-5.38c-.87-3.86-3.25-5.38-6.78-5.38-4.64,0-7.44,3.49-7.44,9.24v.42c0,5.79,2.75,9.24,7.36,9.24,3.73,0,6.2-1.6,6.94-5.79h5.38c-1,7.14-5.79,10.51-12.45,10.51C2230.21,925.54,2225.08,919.83,2225.08,911.37Z"
          transform="translate(-1838.32 -890.18)"/>
    <path class="e387d08f-dbd4-44fb-9cf6-be26b75d6f4b"
          d="M1891.51,895.15c12.17,6.62,12.17,17.37,0,24-6.08,3.32-14.06,5-22,5s-16-1.65-22-5c-12.17-6.62-12.17-17.37,0-24,6.08-3.32,14.06-5,22-5S1885.43,891.83,1891.51,895.15Z"
          transform="translate(-1838.32 -890.18)"/>
    <path class="af77f03e-da6e-4d5e-8157-1d8d8e1708f6"
          d="M1900.61,907.86c-.32,4.1-3.35,8.15-9.1,11.28-6.08,3.32-14.06,5-22,5s-16-1.65-22-5-9.13-7.65-9.13-12v8.43c1.51,15.07,25.76,18.27,38.39,16.5,8.6-1.28,18.75-4.18,23-12.45C1901.15,917.21,1900.55,911.06,1900.61,907.86Z"
          transform="translate(-1838.32 -890.18)"/>
    <path class="b3e6fa10-4976-4774-ab29-41e6220966de"
          d="M1867.34,922.32a56.21,56.21,0,0,1-11.81-2.19A39.1,39.1,0,0,1,1850,918c-.89-.42-1.73-.89-2.56-1.38l-.6-.38c-.2-.13-.4-.26-.59-.4l-.58-.41-.55-.43-.28-.22-.26-.23c-.18-.15-.36-.3-.52-.45l-.5-.48c-.17-.15-.3-.33-.46-.49a11.5,11.5,0,0,1-1.55-2.12,8.52,8.52,0,0,1-.92-2.3,7.45,7.45,0,0,1-.17-2.4,7.94,7.94,0,0,1,.61-2.39,11.08,11.08,0,0,1,1.32-2.27c.26-.37.57-.71.87-1.07s.64-.67,1-1,.71-.63,1.07-.94l.57-.45c.19-.14.38-.29.59-.43l.6-.41.61-.4.63-.4.64-.37.32-.19.33-.17.66-.35,1.35-.66a45.36,45.36,0,0,1,5.67-2.15,59.43,59.43,0,0,1,6-1.51q3-.6,6.17-1c-8,0-16,1.65-22,5-12.17,6.62-12.17,17.37,0,24,6.08,3.32,14.06,5,22,5s16-1.65,22-5a47.4,47.4,0,0,1-12,3A62,62,0,0,1,1867.34,922.32Z"
          transform="translate(-1838.32 -890.18)"/>
    <path class="af77f03e-da6e-4d5e-8157-1d8d8e1708f6"
          d="M1882.94,914.15c6.74-3.67,8.41-8.06,1.41-12.41l-6.84,3.73c2.92,2.09,2.58,3.77-.27,5.32a9,9,0,0,1-4.4,1.12,15.45,15.45,0,0,1-7.31-2.2l-.76-.41c-4.57-2.49-5.25-4.6-1.83-6.46a9.82,9.82,0,0,1,4.76-1.18,12.68,12.68,0,0,1,4.22.76l6.69-3.64a26.76,26.76,0,0,0-10.1-2,24.37,24.37,0,0,0-11.73,3c-7.68,4.18-7.72,9.8.34,14.19a27.82,27.82,0,0,0,13.25,3.32,26.34,26.34,0,0,0,12.57-3.09"
          transform="translate(-1838.32 -890.18)"/>
    <path class="b3e6fa10-4976-4774-ab29-41e6220966de"
          d="M1839.59,911.94a10.07,10.07,0,0,1-1.27-4.79v8.43a13.64,13.64,0,0,0,1.27,4.53Z"
          transform="translate(-1838.32 -890.18)"/>
    <path class="b43c1a66-3014-4a5d-abb4-ce5d701446e2"
          d="M1868.51,895.49a26.76,26.76,0,0,1,10.1,2l-6.69,3.65a12.45,12.45,0,0,0-4.22-.77,9.93,9.93,0,0,0-4.76,1.18c-3.42,1.86-2.74,4,1.83,6.46l.76.42a15.54,15.54,0,0,0,7.31,2.19,9,9,0,0,0,4.4-1.12c2.85-1.55,3.19-3.23.27-5.32l6.84-3.73c7,4.35,5.33,8.74-1.41,12.41a26.34,26.34,0,0,1-12.57,3.09,27.82,27.82,0,0,1-13.25-3.32c-8.06-4.39-8-10-.34-14.19A24.48,24.48,0,0,1,1868.51,895.49Z"
          transform="translate(-1838.32 -890.18)"/>
</svg>